<svg xmlns="http://www.w3.org/2000/svg" viewBox="0 0 446 446"><defs><style>.cls-1{fill:#e6e7e8;}.cls-2{fill:#fff;}.cls-3{fill:#e9af52;}</style></defs><title>Ресурс 4</title><g id="Слой_2" data-name="Слой 2"><g id="Слой_1-2" data-name="Слой 1"><path class="cls-1" d="M223,0C99.84,0,0,99.84,0,223S99.84,446,223,446l1.28,0V0Z"/><path class="cls-2" d="M446,223C446,100.27,346.85.71,224.28,0V446C346.85,445.29,446,345.73,446,223Z"/><path class="cls-3" d="M224.28,46.69A5.72,5.72,0,1,0,218.57,41,5.72,5.72,0,0,0,224.28,46.69Z"/><rect class="cls-3" x="153.36" y="325.19" width="141.85" height="11.66" rx="3.96" ry="3.96"/><rect class="cls-3" x="135.41" y="349.6" width="177.74" height="11.66" rx="3.96" ry="3.96"/><path class="cls-3" d="M157.38,276h4.82a5.63,5.63,0,1,0,0-11.26H53.43a5.63,5.63,0,0,0,0,11.26h4.82a54.79,54.79,0,0,0,99.13,0Zm-49.56,20.17A43.86,43.86,0,0,1,71.11,276h73.42A43.87,43.87,0,0,1,107.82,296.13Z"/><path class="cls-3" d="M395.14,264.7H286.36a5.63,5.63,0,0,0,0,11.26h4.83a54.78,54.78,0,0,0,99.12,0h4.83a5.63,5.63,0,0,0,0-11.26Zm-54.39,31.43A43.86,43.86,0,0,1,304,276h73.42A43.86,43.86,0,0,1,340.75,296.13Z"/><path class="cls-3" d="M60.17,258.4a5.63,5.63,0,0,0,7.13-3.56l40.52-121.19,40.52,121.19a5.62,5.62,0,0,0,5.34,3.85,5.53,5.53,0,0,0,1.78-.29,5.64,5.64,0,0,0,3.56-7.13L115.64,121.52h103V301.76a5.64,5.64,0,1,0,11.27,0V121.52h103L289.55,251.27a5.63,5.63,0,1,0,10.68,3.57l40.52-121.19,40.52,121.19a5.64,5.64,0,0,0,5.34,3.85,5.54,5.54,0,0,0,1.79-.29,5.64,5.64,0,0,0,3.56-7.13L348.57,121.52h9a5.79,5.79,0,0,0,5.86-5.46,5.63,5.63,0,0,0-5.63-5.81H229.92v-33h27.52a16.05,16.05,0,0,1,16,16.14,5.58,5.58,0,0,0,5.63,5.53h16.82a5.8,5.8,0,0,0,5.87-5.46,5.64,5.64,0,0,0-5.63-5.8h-12A27.34,27.34,0,0,0,257.44,66H229.92V60.34a5.79,5.79,0,0,0-5.46-5.86,5.63,5.63,0,0,0-5.81,5.63V66H191.13a27.35,27.35,0,0,0-26.72,21.67H152.64a5.79,5.79,0,0,0-5.87,5.46,5.64,5.64,0,0,0,5.63,5.8h17.06a5.58,5.58,0,0,0,5.63-5.53,16.05,16.05,0,0,1,16-16.14h27.52v33H91a5.8,5.8,0,0,0-5.87,5.46,5.64,5.64,0,0,0,5.63,5.81H100L56.61,251.27A5.64,5.64,0,0,0,60.17,258.4Z"/></g></g></svg>